<svg width="80" height="80" viewBox="0 0 80 80" fill="none" xmlns="http://www.w3.org/2000/svg">
<path d="M28.4656 74.9375C29.6032 74.4479 30.4 73.3167 30.4 71.9999V63.3599C30.4 63.0447 30.4256 62.7168 30.4656 62.384C30.4432 62.3904 30.4224 62.3951 30.4 62.3999C30.4 62.3999 25.6 62.3999 24.64 62.3999C22.24 62.3999 20.16 61.4399 19.2 59.5199C18.08 57.4399 17.6 53.9199 14.72 51.9999C14.24 51.6799 14.56 51.1999 15.52 51.1999C16.48 51.3599 18.56 52.6399 19.84 54.3999C21.28 56.1599 22.72 57.5999 25.28 57.5999C29.2592 57.5999 31.392 57.3999 32.6752 56.7119C34.1696 54.4895 36.2384 52.7999 38.4 52.7999V52.7599C29.3312 52.4687 23.5376 49.4543 20.84 44.7999C14.976 44.8671 9.87041 45.4479 6.95681 45.9311C6.86401 45.4079 6.78401 44.8815 6.71521 44.3519C9.59041 43.8783 14.464 43.3167 20.0672 43.2095C19.888 42.7679 19.7328 42.3151 19.6016 41.8511C13.984 41.5663 9.13601 41.7887 6.50241 42.0063C6.47041 41.4751 6.42721 40.9455 6.42081 40.4079C9.05921 40.1919 13.776 39.9759 19.2496 40.2303C19.1232 39.4303 19.0416 38.6127 19.0416 37.7615C19.0416 35.0415 20.0016 32.1615 21.7616 29.7615C20.9616 27.0415 19.8416 21.2816 22.0816 19.2016C26.4016 19.2016 29.4416 21.2815 30.8816 22.5615C33.6 21.4399 36.64 20.8 40 20.8C43.36 20.8 46.4 21.44 48.96 22.56C50.4 21.28 53.44 19.2 57.76 19.2C60.16 21.44 58.88 27.2 58.08 29.76C59.84 32.16 60.8 34.8799 60.64 37.7599C60.64 38.5343 60.568 39.2816 60.464 40.0144C66.0624 39.7392 70.9072 39.9599 73.5904 40.1775C73.5872 40.7167 73.5376 41.2431 73.5088 41.7759C70.8352 41.5551 65.8688 41.3279 60.1344 41.6335C59.992 42.1711 59.8192 42.6943 59.6144 43.2015C65.288 43.2751 70.2784 43.8239 73.2912 44.3039C73.2224 44.8351 73.1424 45.3615 73.0496 45.8831C69.9904 45.3935 64.776 44.8208 58.8432 44.792C56.1792 49.3967 50.4912 52.4 41.6 52.7504V52.7999C45.76 52.7999 49.6 59.0399 49.6 63.3599V71.9999C49.6 73.3167 50.3968 74.4479 51.5344 74.9375C66.192 70.0863 76.8 56.2623 76.8 39.9999C76.8 19.7087 60.2928 3.19995 40 3.19995C19.7072 3.19995 3.20001 19.7087 3.20001 39.9999C3.20001 56.2623 13.808 70.0863 28.4656 74.9375Z" fill="#5CFF4D" fill-opacity="0.3"/>
</svg>
