<svg width="90" height="90" viewBox="0 0 90 90" fill="none" xmlns="http://www.w3.org/2000/svg">
<g opacity="0.5" clip-path="url(#clip0_313_209)">
<path d="M13.1203 9.59351L18.9225 74.776L44.9606 82.0154L71.0719 74.7648L76.8797 9.59351H13.1203ZM25.1747 25.0623L24.9834 22.9163H44.9719V30.9094H33.7078L34.4363 39.0966H44.9719V47.0898H27.1378L25.1747 25.0594V25.0623ZM63.3319 41.2454L61.4559 62.2913L61.335 63.6413L44.9606 68.1863L28.6088 63.6413L27.4894 51.0891H35.5022L36.0703 57.4651L44.9662 59.8669L53.8678 57.4594L54.7931 47.0926H44.9916V39.0994H63.5175L63.3234 41.2454H63.3319ZM64.7775 25.0623L64.4147 29.1151L64.2544 30.9123H45V22.9191H64.9688L64.7775 25.0623Z" fill="#5CFF4D" fill-opacity="0.8"/>
</g>
<defs>
<clipPath id="clip0_313_209">
<rect width="90" height="90" fill="white"/>
</clipPath>
</defs>
</svg>
