<svg width="90" height="90" viewBox="0 0 90 90" fill="none" xmlns="http://www.w3.org/2000/svg">
<g opacity="0.5" clip-path="url(#clip0_313_150)">
<path d="M27.0928 22.41H37.6425V51.9806C37.6425 65.3063 31.2553 69.9581 21.0516 69.9581C18.5541 69.9581 15.3591 69.5419 13.2778 68.8472L14.4591 60.3084C15.9159 60.795 17.7919 61.1409 19.8731 61.1409C24.3169 61.1409 27.0928 59.1272 27.0928 51.9103V22.41ZM46.8028 58.3678C49.5788 59.8247 54.0225 61.2844 58.5338 61.2844C63.3938 61.2844 65.9616 59.2706 65.9616 56.1488C65.9616 53.3025 63.7397 51.5672 58.1175 49.6238C50.3438 46.8478 45.2081 42.5447 45.2081 35.6709C45.2081 27.6891 51.9413 21.6506 62.9072 21.6506C68.2509 21.6506 72.0703 22.6913 74.8463 24.0103L72.4866 32.4788C70.6809 31.5759 67.2806 30.2569 62.7694 30.2569C58.1878 30.2569 55.9659 32.4084 55.9659 34.7681C55.9659 37.7522 58.5337 39.0713 64.6425 41.4309C72.9028 44.4853 76.7194 48.7884 76.7194 55.4513C76.7194 63.2953 70.7513 69.9581 57.9094 69.9581C52.5656 69.9581 47.2894 68.5013 44.6513 67.0416L46.8028 58.3678Z" fill="#5CFF4D" fill-opacity="0.8"/>
</g>
<defs>
<clipPath id="clip0_313_150">
<rect width="90" height="90" fill="white"/>
</clipPath>
</defs>
</svg>
