<svg width="90" height="90" viewBox="0 0 90 90" fill="none" xmlns="http://www.w3.org/2000/svg">
<g opacity="0.5" clip-path="url(#clip0_313_160)">
<path d="M64.1166 40.9556C63.9281 38.7787 63.5288 36.6074 62.9719 34.4953C61.2141 27.8324 58.2863 21.4537 54.1575 15.9243C53.0325 14.4168 51.8175 12.9768 50.5181 11.6156C49.1794 10.2121 47.6944 8.924 46.7606 7.17744C46.17 6.07213 45.6075 4.95275 45.0338 3.839C45.0253 4.18775 45.0028 4.5365 45.0028 4.88244C45.0028 4.53369 45.0281 4.18494 45.0338 3.83619C44.9269 3.569 44.82 3.299 44.6681 2.9165C44.6063 3.12744 44.5669 3.20057 44.5669 3.27932C44.5191 5.09338 43.4897 6.32525 42.21 7.47557C40.77 8.76932 39.4284 10.1728 38.0447 11.5284C38.0925 11.5903 38.1459 11.6521 38.1994 11.714C38.1459 11.6521 38.0925 11.5931 38.0447 11.5284C33.93 16.9396 30.3047 22.7249 28.17 29.219C27.5484 31.109 27.0591 33.0412 26.7159 35.0015C25.9875 39.1668 25.65 43.214 25.8834 47.4328C26.0128 49.7643 26.4206 52.0593 27.0281 54.3178C29.2359 62.5218 33.7191 69.3252 39.8475 75.1077C40.9866 76.1821 42.2156 77.1581 43.4053 78.1818C43.5797 78.7837 43.7569 79.3856 43.9313 79.9874C44.0944 80.9212 44.2575 81.8549 44.4206 82.7887C44.4994 83.7618 44.5753 84.7378 44.6541 85.7109C44.6513 86.3043 44.6259 86.9006 44.6625 87.4912C44.6709 87.6431 44.8706 87.7837 44.9803 87.9299C44.9831 87.9243 44.9859 87.9187 44.9916 87.9131C44.9888 87.9187 44.9859 87.9243 44.9803 87.9299C45.3122 88.0452 45.6413 88.1634 45.9731 88.2787C46.2713 88.394 46.5694 88.5121 47.0053 88.6809C46.9406 87.7078 46.8844 86.8949 46.8281 86.0821C46.8253 85.2299 46.8225 84.3749 46.8197 83.5228C46.8028 83.5424 46.7803 83.5621 46.7606 83.5818C46.7803 83.5621 46.8 83.5424 46.8197 83.5228C46.9378 82.2234 47.0588 80.924 47.1769 79.6246C47.2641 79.3406 47.3484 79.0593 47.4356 78.7753C47.6831 78.3365 47.9278 77.9006 48.1753 77.4618C49.0894 76.7249 50.0709 76.0584 50.9063 75.2399C52.4138 73.7578 53.9184 72.2587 55.2656 70.6359C57.015 68.5321 58.5225 66.2343 59.7319 63.7706C63.1716 56.7646 64.7634 48.9515 64.1306 41.1609C64.125 41.0934 64.1194 41.0231 64.1138 40.9528L64.1166 40.9556Z" fill="#5CFF4D" fill-opacity="0.8"/>
</g>
<defs>
<clipPath id="clip0_313_160">
<rect width="90" height="90" fill="white"/>
</clipPath>
</defs>
</svg>
