<svg width="90" height="90" viewBox="0 0 90 90" fill="none" xmlns="http://www.w3.org/2000/svg">
<g opacity="0.5" clip-path="url(#clip0_313_215)">
<path d="M14.2931 15.7302C12.7069 17.3165 13.1034 19.1418 15.8794 23.2649C17.3081 25.4052 18.9731 28.738 19.6087 30.6421C20.2444 32.6249 21.5128 35.3221 22.3847 36.6693C23.9709 38.8912 23.9709 39.3665 22.9387 43.4108C22.3031 45.9477 22.0669 49.123 22.3847 51.1058C22.86 54.4387 25.5572 59.2762 27.2222 59.8302C28.6509 60.3055 30.7125 57.7687 30.7912 55.468C30.7912 53.4852 30.87 53.4065 31.7419 54.8324C33.2494 57.2905 38.0081 62.5246 38.4047 62.128C38.5622 61.9705 37.5328 59.9062 36.0253 57.6083C34.5966 55.229 32.9316 52.1352 32.2987 50.7065C31.4269 48.3271 31.1091 48.1696 30.0769 49.2777C29.4412 49.9133 28.6481 51.7358 28.4119 53.4008C27.7762 57.209 26.3503 57.6843 25.2394 54.433C24.1284 51.1818 24.1284 45.6271 25.2394 41.8218C26.0325 39.2033 25.9537 38.4918 24.6037 36.5062C23.7319 35.3165 22.3819 32.4618 21.6675 30.1612C20.9531 27.9393 19.2881 24.6093 17.9409 22.8627C14.8472 18.5005 14.8472 16.9143 18.0984 17.5471C19.4456 17.7862 21.51 18.7368 22.7784 19.6087C23.9681 20.4805 26.0297 21.1949 27.2981 21.1949C31.1062 21.1949 37.7691 24.9243 42.6066 29.7618C46.3359 33.4883 48.2372 36.5033 52.2844 44.6737C57.0431 54.3487 57.4397 54.9055 60.3759 55.8562C63.8662 57.0458 71.1619 61.4868 71.1619 62.4402C71.1619 62.758 69.3366 63.2333 67.1175 63.3908C61.1691 64.0265 60.6122 65.1346 64.4991 68.6249C66.3244 70.2112 69.7359 72.6693 72.1941 74.0193L76.635 76.5562L74.5734 73.9377C73.3837 72.509 70.9256 70.2899 69.0216 69.1002C67.1175 67.9105 65.61 66.6421 65.61 66.3243C65.61 66.0065 66.9572 65.4524 68.625 65.2133C73.0659 64.4202 74.3344 64.0237 74.3344 63.2305C74.3344 62.0408 66.3244 56.0137 62.5162 54.3458C59.265 52.8383 58.8684 52.2027 54.6637 43.5599C50.9344 35.6287 49.4297 33.4068 44.6709 28.648C38.565 22.5421 34.3603 19.9237 28.9659 19.1305C27.1406 18.8127 24.6037 17.8621 23.4928 17.069C20.8744 15.0862 15.5616 14.3718 14.2903 15.7218L14.2931 15.7302Z" fill="#5CFF4D" fill-opacity="0.8"/>
</g>
<defs>
<clipPath id="clip0_313_215">
<rect width="90" height="90" fill="white"/>
</clipPath>
</defs>
</svg>
