<svg width="90" height="90" viewBox="0 0 90 90" fill="none" xmlns="http://www.w3.org/2000/svg">
<g opacity="0.5" clip-path="url(#clip0_313_212)">
<path d="M75.2091 52.4841C74.5341 51.7022 73.3809 51.9159 72.4894 52.0931C70.3462 52.4756 68.0147 52.92 65.9391 52.0284C69.6459 46.1784 72.5625 39.7913 74.1937 33.0497C74.7872 30.4875 75.2456 27.8663 75.1584 25.2281C75.0938 23.7516 74.8884 22.1794 73.9856 20.9559C71.7525 18.0113 68.5153 15.8653 64.9462 14.9063C60.4884 13.6969 55.7072 14.0569 51.3225 15.4125C50.9597 15.4856 50.6025 15.3225 50.2481 15.2775C46.2684 14.4703 41.8809 14.7881 38.43 17.0916C34.2872 15.6009 29.835 14.7009 25.425 15.1622C22.1456 15.5025 18.8522 17.0269 16.9706 19.8197C14.5913 23.3044 14.2678 27.7537 14.6475 31.8375C15.4125 37.26 16.7344 42.5981 18.4163 47.8041C19.5244 51.0497 20.745 54.3206 22.7166 57.1556C23.7178 58.5478 25.0481 59.9512 26.8397 60.1706C28.4316 60.3647 29.8716 59.3775 30.8475 58.2075C32.535 56.1881 34.2703 54.2053 36.0703 52.2872C37.2459 52.8637 38.5228 53.1956 39.8278 53.2941C39.1219 54.1322 38.5397 55.2262 37.4147 55.5553C35.8988 56.1403 34.1241 56.0616 32.7881 57.0713C32.0175 57.6225 31.9809 58.8234 32.6728 59.4562C33.9244 60.6712 35.7694 60.9328 37.4344 61.0734C39.7941 61.2534 42.1791 60.4603 43.9706 58.9134C43.9594 62.6653 43.9763 66.4284 44.3981 70.1606C44.6091 72.3459 45.5513 74.5228 47.2134 75.9938C48.78 77.3606 51.0131 77.6447 53.0016 77.2987C54.9534 76.9275 56.9588 76.3425 58.4831 75.0094C60.1031 73.5806 60.795 71.4234 61.1156 69.3534C61.6978 65.6437 62.1394 61.9172 62.5612 58.1906C66.7322 58.8937 71.4516 58.095 74.5678 55.0491C75.2344 54.4219 75.8672 53.3362 75.2091 52.4841ZM65.9531 17.2041C68.4563 18.1547 70.6809 19.8056 72.3516 21.8953C73.1475 22.8938 73.2487 24.2353 73.2994 25.4616C73.3359 28.3866 72.7453 31.275 71.9944 34.0875C70.5572 39.2934 68.3747 44.2828 65.6325 48.9291C65.3625 49.3875 65.0672 49.8291 64.7409 50.2481C64.7156 50.1216 64.665 49.8628 64.6397 49.7334C64.98 48.8391 65.4778 47.9953 65.6719 47.0447C66.3581 44.3644 65.7787 41.6053 65.5312 38.9081C65.2725 36.3628 66.1416 33.885 66.1191 31.3453C66.2175 30.1022 65.7253 28.9266 65.2472 27.81C63.5175 23.9428 60.7669 20.5031 57.2372 18.1406C56.3766 17.55 55.4147 17.1366 54.5569 16.5431C58.3088 15.7388 62.3334 15.84 65.9503 17.2013L65.9531 17.2041ZM63.6666 38.9138C63.8859 41.9259 64.7606 45.1603 63.3403 48.0178C61.4362 44.2294 58.9753 40.6125 58.1175 36.3937C57.8756 35.0522 57.8138 33.3534 59.0063 32.4197C60.5194 31.3453 62.4966 31.5872 64.2459 31.6941C64.17 34.11 63.4275 36.4809 63.6694 38.9138H63.6666ZM29.6269 56.7591C28.9434 57.5634 28.0209 58.5225 26.8566 58.2834C25.4953 57.8897 24.6291 56.6466 23.8697 55.53C21.8194 52.2506 20.5847 48.5466 19.4513 44.8706C18.1828 40.5197 17.1141 36.0984 16.4981 31.6041C16.1916 28.1841 16.3828 24.5166 18.1322 21.4706C19.4428 19.1644 21.8869 17.6934 24.4547 17.2125C28.5666 16.4222 32.7825 17.2603 36.7284 18.4641C34.9875 20.3766 33.6319 22.6294 32.8416 25.0959C31.7644 28.3894 31.2722 31.8938 31.5309 35.3559C31.68 37.7944 31.6153 40.2441 31.275 42.6628C30.8475 45.8212 32.1159 49.0697 34.4616 51.2016C32.8641 53.0691 31.1709 54.8494 29.6241 56.7619L29.6269 56.7591ZM33.2269 45.4444C32.8247 43.6556 33.3506 41.8556 33.4097 40.0641C33.5475 38.0362 33.4041 36.0056 33.3647 33.9778C35.2603 32.7516 37.4766 31.7925 39.7744 31.9247C40.9641 31.9753 42.0609 32.8163 42.3478 33.9891C43.3913 38.1431 43.7147 42.7669 41.715 46.7016C41.0175 48.2203 40.4522 49.7925 39.9656 51.3872C36.6413 51.4209 33.8147 48.6084 33.2269 45.4444ZM43.5713 56.565C41.4844 59.3916 37.3078 59.9316 34.29 58.3931C35.7778 57.7041 37.5188 57.7575 38.9559 56.9081C40.3453 56.16 40.8966 54.5147 42.1959 53.6681C43.6106 53.4684 44.6428 55.5694 43.5741 56.5622L43.5713 56.565ZM61.47 53.2631C60.6769 54.54 60.9553 56.0981 60.7612 57.5156C60.3056 61.4897 59.8584 65.4694 59.2116 69.4181C58.905 71.3109 58.1006 73.3219 56.3147 74.2641C54.4838 75.195 52.3575 75.78 50.2988 75.4622C48.3441 75.1191 47.1122 73.2966 46.5581 71.5219C46.1531 70.0341 46.1109 68.4787 45.9956 66.9459C45.7988 63.2475 45.7959 59.5406 45.8916 55.8394C45.9731 54.3937 45.2306 52.8891 43.9397 52.1859C43.3153 51.8344 42.5841 51.7866 41.8866 51.7303C42.435 49.0106 44.0916 46.6622 44.6597 43.9453C45.3966 40.5844 44.9888 37.0856 44.235 33.7669C43.8666 32.1103 42.6066 30.645 40.9303 30.2428C38.3484 29.5931 35.7441 30.6028 33.435 31.6828C33.7275 27.9309 34.7316 24.0891 37.0294 21.0431C38.7197 18.7762 41.3409 17.2631 44.1394 16.9003C48.7575 16.3125 53.6063 17.5837 57.2766 20.4722C60.3084 22.8684 62.7047 26.1141 63.9956 29.7647C61.8497 29.6888 59.4169 29.6016 57.6816 31.0922C56.1066 32.4197 55.9041 34.6838 56.2584 36.585C57.0797 41.1075 59.7487 44.9522 61.7175 49.0191C62.2406 49.9725 62.9437 50.805 63.6131 51.66C62.8172 52.0622 61.9284 52.4475 61.4756 53.2659L61.47 53.2631ZM66.9937 56.4609C65.5762 56.6297 64.1025 56.6803 62.7356 56.2106C62.7412 55.4372 62.6991 54.5203 63.3206 53.9437C63.8128 53.5809 64.5131 53.2463 65.0812 53.6428C67.5 54.9169 70.3125 54.2953 72.8859 53.9831C71.3138 55.5131 69.1369 56.2275 66.9937 56.4609ZM59.5631 32.985C59.0597 33.3984 59.6025 34.0172 60.0356 34.2113C61.0847 34.8272 62.5219 33.9666 62.5556 32.7684C61.6078 32.3269 60.4209 32.3719 59.5631 32.985ZM40.995 34.8975C41.4422 34.6444 41.9147 33.9497 41.3972 33.5306C40.6603 32.9316 39.5888 32.8162 38.6916 33.0581C38.4019 33.1594 38.0981 33.3563 38.1572 33.7106C38.3653 34.9144 39.9769 35.6456 40.9922 34.8975H40.995Z" fill="#5CFF4D" fill-opacity="0.8"/>
</g>
<defs>
<clipPath id="clip0_313_212">
<rect width="90" height="90" fill="white"/>
</clipPath>
</defs>
</svg>
