<svg width="90" height="90" viewBox="0 0 90 90" fill="none" xmlns="http://www.w3.org/2000/svg">
<g opacity="0.5" clip-path="url(#clip0_313_153)">
<path d="M51.1253 44.9656C51.1253 48.4623 48.2903 51.2973 44.7935 51.2973C41.2968 51.2973 38.4618 48.4623 38.4618 44.9656C38.4618 41.4688 41.2968 38.6338 44.7935 38.6338C48.2903 38.6338 51.1253 41.4688 51.1253 44.9656Z" fill="#5CFF4D" fill-opacity="0.8"/>
<path d="M44.7935 68.2491C49.7647 73.0827 54.6644 75.9415 58.6138 75.9415C59.9082 75.9415 61.1338 75.6688 62.1529 75.0574C65.692 73.0138 66.9865 67.9077 65.7609 60.623C65.557 59.3286 65.2844 58.0368 64.9429 56.6736C66.3035 56.2659 67.5291 55.8556 68.7547 55.448C75.6318 52.793 79.4435 49.1162 79.4435 45.1006C79.4435 41.0162 75.6318 37.3394 68.7547 34.7533C67.5291 34.2768 66.3035 33.8691 64.9429 33.5277C65.2844 32.1671 65.557 30.8727 65.7609 29.5783C66.9176 22.1586 65.6259 16.9836 62.0841 14.94C61.0623 14.3286 59.8368 14.0559 58.545 14.0559C54.6644 14.0559 49.6932 16.9147 44.7247 21.7483C39.8223 16.9147 34.92 14.0559 30.9732 14.0559C29.6788 14.0559 28.4532 14.3286 27.4341 14.94C23.895 16.9836 22.6006 22.0897 23.8262 29.3744C24.03 30.6688 24.3026 31.9606 24.6441 33.3238C23.2835 33.7315 22.0579 34.1418 20.8323 34.5494C13.9553 37.2044 10.1435 40.8812 10.1435 44.8968C10.1435 48.9812 13.9553 52.658 20.8323 55.2441C22.0579 55.7206 23.2835 56.1283 24.6441 56.4697C24.3026 57.8303 24.03 59.1247 23.8262 60.4191C22.6694 67.7038 23.9612 72.8788 27.4341 74.8536C28.4559 75.4677 29.6815 75.7377 30.9732 75.7377C34.9226 75.8727 39.825 73.0139 44.7935 68.2491ZM40.9791 59.0586C42.2047 59.1274 43.4991 59.1274 44.7909 59.1274C46.0826 59.1274 47.3771 59.1274 48.6026 59.0586C47.3771 60.6918 46.0826 62.19 44.7909 63.6194C43.4965 62.19 42.2047 60.6918 40.9791 59.0586ZM32.5376 52.0465C33.2179 53.2033 33.8321 54.2938 34.5812 55.3818C32.4715 55.1091 30.4968 54.7677 28.5909 54.36C29.205 52.523 29.8853 50.6144 30.7006 48.7086C31.2459 49.7965 31.8573 50.9559 32.5376 52.0438V52.0465ZM28.5882 35.6374C30.4941 35.2297 32.4688 34.8883 34.5785 34.6156C33.8982 35.7062 33.2179 36.7941 32.535 37.9509C31.8521 39.1077 31.2406 40.1983 30.6979 41.355C29.8138 39.3803 29.1309 37.4771 28.5882 35.6374ZM32.3338 44.9656C33.2179 43.1286 34.1709 41.2888 35.2615 39.4518C36.2832 37.6809 37.44 35.9127 38.5968 34.1418C40.6403 34.0068 42.6812 33.938 44.7935 33.938C46.9721 33.938 49.0156 34.0068 50.9903 34.1418C52.2159 35.9127 53.3038 37.6809 54.3256 39.4518C55.4162 41.2888 56.3691 43.1286 57.2532 44.9656C56.3691 46.8027 55.4162 48.6424 54.3256 50.4794C53.3038 52.2503 52.1471 54.0186 50.9903 55.7894C48.9468 55.9244 46.9059 55.9933 44.7935 55.9933C42.615 55.9933 40.5715 55.9244 38.5968 55.7894C37.3712 54.0186 36.2832 52.2503 35.2615 50.4794C34.1709 48.6397 33.2179 46.8027 32.3338 44.9656ZM58.9553 41.2888L57.1182 37.8847C56.4379 36.728 55.8238 35.6374 55.0747 34.5494C57.1844 34.8221 59.1591 35.1636 61.065 35.5712C60.4535 37.4771 59.7706 39.3803 58.9553 41.2888ZM58.9553 48.6424C59.7732 50.5483 60.4535 52.4541 61.065 54.2938C59.1591 54.7015 57.1844 55.043 55.0747 55.3156C55.755 54.225 56.4353 53.1371 57.1182 51.9803C57.7323 50.9586 58.3438 49.8018 58.9553 48.645V48.6424ZM60.5197 72.2674C59.9744 72.6088 59.2941 72.7439 58.545 72.7439C55.2097 72.7439 51.0565 70.02 46.9721 65.9356C48.9468 63.8259 50.8526 61.4409 52.7585 58.7859C55.9588 58.5133 59.0215 58.0368 61.8829 57.3565C62.2244 58.5821 62.4282 59.8077 62.632 61.0333C63.585 66.8197 62.8332 70.973 60.5197 72.2674ZM64.0615 36.3865C71.6876 38.565 76.2485 41.9003 76.2485 44.9656C76.2485 47.6206 73.117 50.2756 67.6032 52.388C66.5126 52.7956 65.2897 53.2059 64.0641 53.5447C63.18 50.7521 62.0894 47.8933 60.7288 44.9656C62.0894 42.038 63.2462 39.1791 64.0615 36.3865ZM58.6138 17.1874C59.3629 17.1874 59.9744 17.3224 60.5885 17.6638C62.8359 18.9583 63.6512 23.0427 62.6982 28.898C62.4944 30.0547 62.2218 31.2803 61.9491 32.5747C59.0903 31.9606 56.025 31.4841 52.8247 31.1453C50.9876 28.4903 49.0129 26.108 47.0382 23.9956C51.1226 19.9774 55.2785 17.1874 58.6138 17.1874ZM48.6053 30.8727C47.3797 30.8038 46.0853 30.8038 44.7935 30.8038C43.5018 30.8038 42.2073 30.8038 40.9818 30.8727C42.2073 29.2394 43.5018 27.7412 44.7935 26.3118C46.0879 27.7412 47.3797 29.3083 48.6053 30.8727ZM29.0647 17.6638C29.61 17.3224 30.2903 17.1874 31.0394 17.1874C34.3747 17.1874 38.5279 19.9112 42.6123 23.9956C40.6376 26.1053 38.7318 28.4877 36.8259 31.1453C33.6256 31.418 30.5629 31.8944 27.7015 32.5747C27.36 31.3491 27.1562 30.1236 26.9523 28.898C25.9994 23.1115 26.7512 19.0271 29.0647 17.6638ZM25.5256 53.5447C17.8994 51.3662 13.3385 48.0309 13.3385 44.9656C13.3385 42.3106 16.47 39.6556 21.9838 37.5459C23.0744 37.1383 24.2973 36.728 25.5229 36.3891C26.4071 39.1818 27.4976 42.0406 28.8582 44.9683C27.4976 47.8959 26.3382 50.8236 25.5229 53.5474L25.5256 53.5447ZM26.955 61.0333C27.1588 59.8765 27.4315 58.6509 27.7041 57.3565C30.5629 57.9706 33.6282 58.4471 36.8285 58.7859C38.6656 61.4409 40.6403 63.8233 42.615 65.9356C38.5306 69.9512 34.3773 72.7439 31.0421 72.7439C30.2929 72.7439 29.6815 72.6088 29.0673 72.2674C26.7512 70.973 26.0047 66.8197 26.9576 61.0333H26.955Z" fill="#5CFF4D" fill-opacity="0.8"/>
</g>
<defs>
<clipPath id="clip0_313_153">
<rect width="90" height="90" fill="white"/>
</clipPath>
</defs>
</svg>
