<svg width="90" height="90" viewBox="0 0 90 90" fill="none" xmlns="http://www.w3.org/2000/svg">
<path d="M37.2628 19.5552C29.295 20.5424 24.3675 22.8852 23.7797 26.0043C23.6728 26.5105 23.6728 29.3343 23.7263 32.293C23.8331 36.7171 23.9119 37.8365 24.3113 38.5537C24.7388 39.3805 24.7388 39.5127 24.3113 40.6321C23.9119 41.6699 23.8838 42.4715 24.0188 46.7859C24.1256 49.5027 24.3394 52.1409 24.525 52.6218C24.7641 53.2884 24.7641 53.6596 24.525 54.194C24.1256 55.0462 24.0975 62.5612 24.4716 64.8252C24.6319 65.8912 24.9778 66.718 25.4841 67.3565C27.855 70.3152 34.1438 72.073 43.3884 72.3655C54.8719 72.7396 63.6384 70.5796 65.7169 66.8755C66.2766 65.9165 66.3019 65.489 66.3019 60.6149C66.3019 56.4862 66.2231 55.1784 65.8772 54.3543C65.5312 53.474 65.5312 53.1815 65.7984 52.6752C66.0375 52.2224 66.1191 50.6784 66.0656 46.9996C66.0122 41.7234 65.9334 40.9499 65.3456 40.0977C65.0531 39.6702 65.0784 39.4593 65.3991 38.7927C65.745 38.1543 65.8266 36.9815 65.7984 32.3184C65.7731 29.0137 65.6381 26.2715 65.4525 25.7652C64.7325 23.5546 61.5347 21.5296 57.1922 20.489C51.8625 19.2374 43.2309 18.838 37.2628 19.5552ZM38.4891 22.0612C38.4103 22.1934 39.9009 22.2215 41.9006 22.1399C44.8594 22.033 52.6641 22.4859 52.3997 22.753C52.3463 22.8065 51.1481 22.9668 49.7081 23.1271C48.2428 23.2874 46.8309 23.5546 46.5103 23.7121C45.9788 24.0046 45.9788 24.0327 46.4316 24.3787C46.8844 24.6993 46.8563 24.7246 46.1644 24.8849C43.9791 25.3377 42.5672 25.8974 42.0609 26.5359C40.7813 28.1615 41.9006 29.7871 44.6456 30.3721C46.7241 30.7996 54.9309 30.5324 57.195 29.9727C59.7009 29.3343 60.9778 28.6143 60.9778 27.8155C60.9778 26.7243 59.3775 25.9227 55.5159 25.124C53.4628 24.7246 54.7706 24.643 57.3272 25.0452C59.8584 25.4446 61.9116 26.218 62.5753 27.0702C63.0563 27.7087 63.1069 28.1362 63.1069 32.7712C63.1069 38.5002 63.1603 38.3652 60.5503 39.5662C56.7675 41.3521 50.6109 42.0187 39.9263 41.8302C37.9013 41.7768 37.7409 41.7515 38.3006 41.4309C38.8603 41.1102 38.6747 41.0568 36.4359 40.9246C33.3197 40.739 30.6 39.9655 29.3231 38.953C27.7763 37.7268 26.7919 35.5162 26.6597 32.9062C26.5275 30.4284 27.0056 27.5765 27.5119 27.7621C27.6975 27.8409 28.0969 27.388 28.4709 26.7243C29.5369 24.6993 31.8544 23.3127 35.6653 22.3537C37.9294 21.794 38.7028 21.7152 38.4891 22.0612ZM28.4709 42.044C28.4709 43.1352 29.0025 43.588 31.0809 44.2012C38.5959 46.4652 55.5413 46.1727 60.39 43.6949C61.3772 43.1887 61.5094 43.0284 61.5094 42.2043C61.5094 41.1918 61.7766 41.0315 62.415 41.698C62.9212 42.2043 62.8959 41.7515 62.8397 47.2668L62.8144 51.7977L62.0409 52.5177C60.39 54.0365 54.6609 55.2346 47.6522 55.5552C38.9672 55.9546 29.0278 54.2502 27.5091 52.0902C27.2166 51.6627 27.135 50.518 27.135 46.8955C27.135 42.9524 27.1884 42.179 27.5878 41.7543C28.2009 41.0624 28.4681 41.1693 28.4681 42.0468L28.4709 42.044ZM29.2697 57.2849C31.5619 58.964 42.9384 60.0834 50.6391 59.4168C54.8747 59.0427 58.5253 58.3509 60.2831 57.5774C61.4559 57.0459 61.5094 56.9643 61.5094 55.9518C61.5094 55.2065 61.6163 54.8605 61.8834 54.8605C62.7891 54.8605 62.9213 55.5805 62.8678 60.4827C62.8425 63.1462 62.7356 65.4665 62.6822 65.6521C62.4684 66.1837 60.2044 67.303 58.3116 67.784C55.0884 68.6362 52.0763 69.0102 47.2528 69.1705C38.3541 69.463 29.9869 68.1046 27.7228 66.0009C27.1631 65.4412 27.1378 65.2555 27.1378 60.6177C27.1378 56.008 27.1631 55.7943 27.7509 55.1812L28.3359 54.5427L28.4681 55.6874C28.575 56.4862 28.7916 56.939 29.2697 57.2849Z" fill="#5CFF4D" fill-opacity="0.8"/>
</svg>
