<svg width="90" height="90" viewBox="0 0 90 90" fill="none" xmlns="http://www.w3.org/2000/svg">
<g opacity="0.5" clip-path="url(#clip0_313_199)">
<path d="M48.7097 26.477C41.836 33.3507 36.0534 38.9504 35.7806 38.9504C35.5528 38.9504 31.7756 36.1745 27.45 32.8051L19.62 26.6598L13.2469 29.8464V61.7148L19.62 64.9014L26.8594 59.2567C30.8672 56.1151 34.5544 53.2942 35.055 52.9735C35.9663 52.4279 36.8747 53.2464 48.6675 64.9942L61.2788 77.6054L69.0188 74.4639L76.7588 71.3673V20.1939L70.8413 17.8257C67.6097 16.5039 64.1025 15.1398 63.0563 14.7292L61.1888 14.0007L48.7153 26.4742L48.7097 26.477ZM61.0481 45.782C61.0481 52.7935 60.9581 58.5282 60.7753 58.5282C60.1369 58.5282 44.6597 46.0548 44.7947 45.6442C44.9325 45.1435 60.1819 33.0779 60.7303 33.0779C60.9131 33.0329 61.051 38.7676 61.051 45.7792L61.0481 45.782ZM24.8541 41.2285L29.4075 45.782L24.8541 50.3354C22.3509 52.8385 20.1656 54.8889 19.9828 54.8889C19.755 54.8889 19.6172 50.791 19.6172 45.7848C19.6172 40.7785 19.7522 36.6779 19.9828 36.6779C20.1656 36.6779 22.3509 38.7254 24.8541 41.2285Z" fill="#5CFF4D" fill-opacity="0.8"/>
</g>
<defs>
<clipPath id="clip0_313_199">
<rect width="90" height="90" fill="white"/>
</clipPath>
</defs>
</svg>
