<svg width="37" height="37" viewBox="0 0 37 37" fill="none" xmlns="http://www.w3.org/2000/svg">
<path d="M18.5 18.5C18.5 16.0148 20.5147 14 23 14C25.4853 14 27.5 16.0148 27.5 18.5C27.5 20.9853 25.4853 23 23 23C20.5147 23 18.5 20.9853 18.5 18.5Z" fill="#1ABCFE"/>
<path d="M9.50005 27.5C9.50005 25.0148 11.5148 23 14 23H18.5V27.5C18.5 29.9853 16.4854 32 14 32C11.5148 32 9.50005 29.9853 9.50005 27.5Z" fill="#0ACF83"/>
<path d="M18.5 5V14H23C25.4853 14 27.5 11.9853 27.5 9.5C27.5 7.01472 25.4853 5 23 5H18.5Z" fill="#FF7262"/>
<path d="M9.50005 9.5C9.50005 11.9853 11.5148 14 14 14H18.5V5H14C11.5148 5 9.50005 7.01472 9.50005 9.5Z" fill="#F24E1E"/>
<path d="M9.50005 18.5C9.50005 20.9853 11.5148 23 14 23H18.5V14H14C11.5148 14 9.50005 16.0148 9.50005 18.5Z" fill="#A259FF"/>
</svg>
