<svg width="37" height="37" viewBox="0 0 37 37" fill="none" xmlns="http://www.w3.org/2000/svg">
<path fill-rule="evenodd" clip-rule="evenodd" d="M18.3205 5C10.8659 5 4.82178 11.0441 4.82178 18.5004C4.82178 24.465 8.68958 29.5245 14.0541 31.3105C14.7295 31.434 14.9757 31.0171 14.9757 30.6591C14.9757 30.3392 14.9641 29.4897 14.9574 28.3634C11.2024 29.1789 10.4101 26.5534 10.4101 26.5534C9.79596 24.9945 8.91085 24.5793 8.91085 24.5793C7.68512 23.7415 9.00367 23.758 9.00367 23.758C10.3587 23.8542 11.0714 25.1495 11.0714 25.1495C12.2756 27.2123 14.2315 26.6164 15.0005 26.2716C15.1232 25.399 15.4713 24.8039 15.8575 24.4666C12.8599 24.126 9.70811 22.9674 9.70811 17.7943C9.70811 16.3208 10.2344 15.1158 11.0979 14.1718C10.9587 13.8304 10.4954 12.458 11.2297 10.5991C11.2297 10.5991 12.3634 10.2361 14.9425 11.9831C16.0191 11.6839 17.1744 11.5339 18.3222 11.5289C19.4684 11.5339 20.6236 11.6839 21.7019 11.9831C24.2793 10.2361 25.4105 10.5991 25.4105 10.5991C26.1473 12.458 25.684 13.8304 25.5448 14.1718C26.41 15.1158 26.933 16.3208 26.933 17.7943C26.933 22.9807 23.7762 24.1219 20.7687 24.4558C21.2535 24.8727 21.6853 25.6965 21.6853 26.9562C21.6853 28.7604 21.6687 30.2165 21.6687 30.6591C21.6687 31.0204 21.9115 31.4406 22.5969 31.3088C27.9573 29.5195 31.8218 24.4633 31.8218 18.5004C31.8218 11.0441 25.7768 5 18.3205 5Z" fill="white"/>
</svg>
